PathFileType	4	(X/Y/Z)	walk-thru1-3-TP.trc
DataRate	CameraRate	NumFrames	NumMarkers	Units	OrigDataRate	OrigDataStartFrame	OrigNumFrames
120.00	120.00	       4	60	mm	120.00	331	       529
Frame#	Time	Top.Head			Front.Head			Rear.Head			Jaw			C7			R.Clavicle			L.Clavicle			R.Shoulder			L.Shoulder			R.Scapula			L.Scapula			R.Scap.Inf			R.Biceps.Lateral			R.Elbow			R.Elbow.Medial			R.Forearm			R.Ulna			R.Radius			R.Wrist			R.Thumb.M1			R.Thumb.M2			R.Thumb.M3			R.Finger3.M1			R.Finger3.M2			R.Finger3.M3			L.Biceps.Lateral			L.Elbow			L.Elbow.Medial			L.Forearm			L.Ulna			L.Radius			L.Wrist			L.Thumb.M1			L.Thumb.M2			L.Thumb.M3			L.Finger3.M1			L.Finger3.M2			L.Finger3.M3			V.Sacral			R.ASIS			L.ASIS			R.Thigh			R.Thigh.Front			R.Knee			R.Knee.Medial			R.Shank			R.Ankle			R.Ankle.Medial			R.Heel			R.Toe			R.MedFoot			L.Thigh			L.Knee			L.Knee.Medial			L.Shank			L.Ankle			L.Ankle.Medial			L.Heel			L.Toe			L.MedFoot			V_mid_ASIS			V_R_Knee_JC			V_L_Knee_JC			V_R_Elbow_JC			V_L_Elbow_JC			V_R_Ankle_JC			V_L_Ankle_JC			V_R_Wrist_JC			V_L_Wrist_JC			V_R_ScaTrpz_1stMC_JC			V_R_1stMC_1stPP_JC			V_R_1stPP_1stDP_JC			V_R_LunCap_3rdMC_JC			V_R_3rdMC_3rdPP_JC			V_R_3rdPP_3rdMP_JC			V_R_3rdMP_3rdDP_JC			V_L_ScaTrpz_1stMC_JC			V_L_1stMC_1stPP_JC			V_L_1stPP_1stDP_JC			V_L_LunCap_3rdMC_JC			V_L_3rdMC_3rdPP_JC			V_L_3rdPP_3rdMP_JC			V_L_3rdMP_3rdPP_JC			V_ROOT_JC			V_R_Hip_JC			V_L_Hip_JC			V_R_GlenHum_JC			V_L_GlenHum_JC			V_ForeHead_Ctr			V_Vertex			V_Sagit_Lambdoid_Suture			V_R_FrontoTemp			V_L_FrontoTemporal			V_R_ParietalOccip			V_L_ParietalOcciptal			V_R_Temporal			V_L_Temporal			V_mid_FrontRearHead			V_mid_RLGlenHumCtrs			V_C7_vert			V_C1_vert			V_Mid_Hip			
		X1	Y1	Z1	X2	Y2	Z2	X3	Y3	Z3	X4	Y4	Z4	X5	Y5	Z5	X6	Y6	Z6	X7	Y7	Z7	X8	Y8	Z8	X9	Y9	Z9	X10	Y10	Z10	X11	Y11	Z11	X12	Y12	Z12	X13	Y13	Z13	X14	Y14	Z14	X15	Y15	Z15	X16	Y16	Z16	X17	Y17	Z17	X18	Y18	Z18	X19	Y19	Z19	X20	Y20	Z20	X21	Y21	Z21	X22	Y22	Z22	X23	Y23	Z23	X24	Y24	Z24	X25	Y25	Z25	X26	Y26	Z26	X27	Y27	Z27	X28	Y28	Z28	X29	Y29	Z29	X30	Y30	Z30	X31	Y31	Z31	X32	Y32	Z32	X33	Y33	Z33	X34	Y34	Z34	X35	Y35	Z35	X36	Y36	Z36	X37	Y37	Z37	X38	Y38	Z38	X39	Y39	Z39	X40	Y40	Z40	X41	Y41	Z41	X42	Y42	Z42	X43	Y43	Z43	X44	Y44	Z44	X45	Y45	Z45	X46	Y46	Z46	X47	Y47	Z47	X48	Y48	Z48	X49	Y49	Z49	X50	Y50	Z50	X51	Y51	Z51	X52	Y52	Z52	X53	Y53	Z53	X54	Y54	Z54	X55	Y55	Z55	X56	Y56	Z56	X57	Y57	Z57	X58	Y58	Z58	X59	Y59	Z59	X60	Y60	Z60	

331	2.750	-377.83301	104.69112	1798.58704	-475.47900	91.02656	1684.54138	-248.41203	104.47392	1704.05432	-426.86432	93.68427	1519.62659	-233.50696	103.94916	1567.21594	-336.27338	211.53677	1469.54968	-330.95569	-16.20580	1474.95117	-300.81702	301.56149	1463.51331	-259.31818	-107.54116	1487.31116	-186.61221	193.53430	1483.33484	-176.49730	25.16591	1490.60864	-137.93806	205.29332	1397.34827	-264.32736	364.18600	1285.51135	-240.15793	387.12091	1131.28650	-215.65988	299.09720	1111.51807	-336.69968	329.65796	1028.38623	-321.74396	372.07214	924.12262	-384.07840	308.23532	905.21295	-388.29779	347.43790	856.78766	-400.85913	302.03461	873.37097	-440.97641	270.42355	836.72070	-481.01154	266.35501	815.08539	-440.12354	348.05096	794.37439	-464.48755	305.55222	745.23761	-452.10114	260.69907	719.50958	-221.81044	-171.80763	1341.93176	-193.99049	-219.17451	1168.83875	-152.49690	-151.34784	1152.46863	-258.03647	-200.36319	1061.95569	-203.52843	-221.35942	974.08398	-274.26602	-175.25961	920.65002	-261.79288	-210.02698	864.03949	-281.09811	-164.60786	854.65387	-278.51154	-130.50946	805.29706	-281.44019	-138.39124	742.93896	-272.69891	-227.84573	789.40680	-260.31296	-207.86023	732.64374	-237.36241	-188.25780	689.99695	-130.17200	87.87763	1092.49268	-226.35199	272.30502	1031.14844	-226.12793	-104.16713	1035.92505	-247.44209	213.68102	625.83289	-314.61658	124.29752	549.30688	-254.91202	179.18007	494.99249	-249.34209	66.60037	502.02948	-241.63190	129.58620	315.93378	-110.40200	148.38913	73.50252	-146.35262	52.02962	96.35905	-51.81035	88.77500	53.83969	-292.03711	109.96813	44.74187	-221.98891	70.17173	69.92740	-359.74353	-104.10518	668.34589	-418.34833	-84.28682	533.48486	-425.15668	30.84215	528.61914	-435.83896	-42.07095	334.75064	-352.70108	-72.40100	87.22826	-386.18240	20.24802	125.39971	-301.35507	-11.40184	71.71135	-524.47095	-21.94671	71.07001	-473.96121	4.17708	88.66797																																																																																																																															
332	2.758	-383.87576	103.34821	1799.32739	-480.99808	92.00604	1684.15771	-254.65657	104.36729	1703.61731	-431.35873	94.62089	1519.53430	-239.00827	101.18462	1568.45703	-340.07553	210.24983	1468.88879	-335.64474	-15.84355	1474.14429	-306.79276	301.40289	1464.14929	-264.81317	-108.37592	1486.14441	-191.71223	193.60452	1482.19043	-180.93127	24.35872	1490.15735	-143.38123	204.49236	1397.15869	-269.31448	363.97217	1285.44458	-245.58099	386.98828	1130.54126	-220.69928	299.45563	1110.22571	-343.79300	330.13123	1028.23254	-326.99673	372.08279	923.93921	-389.50842	307.90552	903.87689	-394.18137	346.86874	857.05627	-405.33398	301.79700	873.12024	-446.59277	269.91553	835.91583	-487.37384	266.48407	814.95239	-446.42892	347.63745	794.23621	-466.97385	307.78860	745.39453	-457.86090	261.90860	719.55182	-227.60509	-172.48627	1341.03699	-199.42223	-219.67282	1168.36426	-158.12257	-151.53175	1151.89270	-264.74863	-199.63228	1061.17212	-208.66408	-222.12436	973.31604	-279.46964	-174.05183	920.13007	-268.28076	-209.80818	863.68573	-287.57272	-164.29083	854.31458	-282.84586	-131.03189	804.08844	-288.37521	-137.88582	743.44379	-279.75699	-227.41879	788.83221	-266.65634	-208.08183	732.21173	-243.35127	-187.50383	689.11212	-136.12357	88.46820	1092.30505	-232.54994	271.27542	1030.95996	-232.82275	-104.76270	1035.76074	-249.79587	213.90779	625.53772	-316.90717	123.68669	548.96295	-257.52545	178.69196	494.68265	-251.80530	65.77547	501.63660	-242.88011	129.38615	316.11343	-110.57282	148.30014	73.99373	-147.03319	52.76894	96.69160	-51.99248	89.02257	54.38344	-291.61783	110.45510	44.47083	-222.32399	69.09608	69.29250	-364.37570	-103.96206	667.33313	-423.20145	-83.60625	532.51251	-430.95825	32.46299	528.66174	-446.18484	-41.68661	334.83896	-370.62302	-71.45782	85.66524	-402.75229	21.87004	124.26360	-316.88797	-9.08781	68.98454	-541.78571	-21.17031	72.82977	-490.98874	5.67415	89.19450																																																																																																																															
333	2.767	-389.55426	102.98699	1798.76440	-486.08063	90.93601	1683.54846	-259.98370	104.34692	1702.84485	-437.51251	93.55531	1518.35938	-244.24194	103.18884	1568.07446	-346.65283	211.01147	1468.96228	-341.63226	-15.64600	1473.87610	-312.12537	300.91623	1464.22009	-270.35995	-108.73200	1485.80164	-198.27000	192.25191	1482.63855	-186.54381	22.87511	1490.27258	-147.88464	203.56050	1396.50916	-274.72211	362.52267	1284.92786	-249.96678	386.66904	1130.52637	-227.97804	297.04050	1109.27832	-348.36099	329.86057	1028.17603	-332.28653	371.63669	923.61053	-394.97992	307.90134	904.42352	-399.68546	347.06613	856.87158	-410.91937	301.36392	873.23944	-451.50864	269.96939	835.84967	-492.29117	265.85297	815.02759	-451.56848	348.50388	794.28265	-473.14474	307.31168	744.79242	-463.44513	261.90140	719.52393	-234.06717	-172.94725	1340.23230	-205.77515	-220.49683	1168.22278	-164.14496	-152.17482	1151.43774	-270.72806	-200.14890	1060.57190	-214.94965	-221.85014	972.62323	-285.40726	-173.61102	918.97925	-274.90063	-209.15048	863.05127	-293.51990	-164.64543	853.53467	-291.86563	-131.93367	803.42749	-294.64233	-138.35605	741.99927	-285.71448	-227.83043	788.25403	-272.90625	-208.41827	731.76398	-249.79466	-187.60703	689.43665	-141.66243	87.32765	1091.69910	-237.40208	270.97830	1030.78064	-238.47472	-105.56003	1034.98206	-253.06207	213.53444	625.39545	-320.21671	124.02821	548.17206	-259.38348	179.36363	494.38669	-254.76817	66.46877	501.12515	-244.48477	128.61403	314.59399	-110.57607	148.47995	74.06020	-147.29979	52.76590	96.87617	-52.41975	88.96950	55.29762	-292.01855	108.58842	44.30480	-222.60953	69.42769	69.17108	-369.16190	-103.77111	666.48999	-428.25012	-83.24527	532.09711	-434.93384	33.04181	528.58191	-455.93939	-40.62379	334.93805	-385.64917	-70.64347	83.78377	-418.71756	22.65591	123.21873	-336.40912	-7.90285	65.51536	-558.46539	-20.75283	74.27952	-507.69696	6.66239	90.06955																																																																																																																															
334	2.775	-395.96753	102.75986	1798.56433	-491.20499	90.84030	1683.20557	-265.72681	103.09830	1702.36072	-443.79538	92.42894	1518.38684	-250.34529	101.34760	1567.38220	-352.63367	211.81728	1468.67712	-347.17621	-16.79970	1473.58936	-317.56140	300.96201	1464.04541	-275.58340	-108.89801	1485.08350	-202.19000	191.75491	1482.12537	-192.25946	22.06517	1489.63416	-153.00943	203.83406	1396.42017	-279.26190	362.73965	1284.16541	-255.45299	385.79742	1130.04004	-232.43854	296.20184	1109.54224	-354.05762	328.78333	1028.20361	-336.82803	371.18039	922.88782	-400.65387	307.47247	904.00140	-404.28616	346.75983	856.02081	-417.29755	302.86813	873.13013	-457.41919	270.06577	835.78339	-497.58032	266.77432	814.50134	-455.07834	347.52533	793.58551	-478.78860	308.17834	744.96283	-469.09601	261.76263	718.84009	-240.25015	-173.26701	1339.94324	-212.04672	-219.93062	1167.14697	-170.77403	-153.14243	1150.63342	-275.72577	-200.76961	1059.76013	-221.88359	-222.08586	972.12683	-291.62991	-174.62128	918.52875	-280.90833	-209.25294	862.56128	-300.20935	-164.66641	853.24799	-295.75647	-130.61433	802.85394	-301.43707	-137.58920	742.06091	-292.62656	-227.37988	787.71130	-278.80695	-207.03862	730.98804	-256.47076	-188.39270	688.40576	-147.31577	86.66447	1091.45044	-243.59427	271.57407	1030.40271	-244.54057	-105.04308	1034.31018	-257.02505	213.66136	624.90247	-323.27002	124.72936	546.68988	-262.38104	179.84222	494.18652	-256.48392	65.99229	501.11783	-245.85378	129.07050	314.47946	-110.73794	148.73366	74.50495	-146.83220	51.53915	96.90724	-52.36243	89.31789	55.99398	-292.06238	109.86788	44.53293	-222.64723	69.57452	69.11969	-373.92563	-104.00050	666.49323	-432.88489	-81.92884	531.32239	-440.21539	33.71804	527.62512	-465.65765	-40.00939	335.38058	-402.21887	-69.45316	81.80431	-433.58417	23.14792	122.97367	-352.42871	-6.74710	63.46196	-575.22559	-19.65241	75.69024	-523.46960	7.05787	91.31108																																																																																																																															
